<mxfile host="app.diagrams.net" agent="Mozilla/5.0 (Macintosh; Intel Mac OS X 10_15_7) AppleWebKit/537.36 (KHTML, like Gecko) Chrome/127.0.0.0 Safari/537.36" version="24.7.5">
  <diagram name="Page-1" id="up1P5xU-ty4Zgh6z6XcG">
    <mxGraphModel dx="1026" dy="1754" grid="1" gridSize="10" guides="1" tooltips="1" connect="1" arrows="1" fold="1" page="1" pageScale="1" pageWidth="827" pageHeight="1169" math="0" shadow="0">
      <root>
        <mxCell id="0" />
        <mxCell id="1" parent="0" />
        <mxCell id="2B3tAXRZrzROPpyRWBh2-1" value="" style="ellipse;whiteSpace=wrap;html=1;aspect=fixed;" vertex="1" parent="1">
          <mxGeometry x="160" width="420" height="420" as="geometry" />
        </mxCell>
        <mxCell id="2B3tAXRZrzROPpyRWBh2-2" value="" style="ellipse;whiteSpace=wrap;html=1;aspect=fixed;" vertex="1" parent="1">
          <mxGeometry x="199.38" y="39.38" width="341.25" height="341.25" as="geometry" />
        </mxCell>
        <mxCell id="2B3tAXRZrzROPpyRWBh2-3" value="" style="triangle;whiteSpace=wrap;html=1;" vertex="1" parent="1">
          <mxGeometry x="354" y="-20" width="60" height="80" as="geometry" />
        </mxCell>
        <mxCell id="2B3tAXRZrzROPpyRWBh2-4" value="" style="triangle;whiteSpace=wrap;html=1;rotation=90;" vertex="1" parent="1">
          <mxGeometry x="520" y="120" width="60" height="80" as="geometry" />
        </mxCell>
        <mxCell id="2B3tAXRZrzROPpyRWBh2-5" value="" style="triangle;whiteSpace=wrap;html=1;rotation=-180;" vertex="1" parent="1">
          <mxGeometry x="310" y="360" width="60" height="80" as="geometry" />
        </mxCell>
        <mxCell id="2B3tAXRZrzROPpyRWBh2-6" value="" style="triangle;whiteSpace=wrap;html=1;rotation=-90;" vertex="1" parent="1">
          <mxGeometry x="150" y="170" width="60" height="80" as="geometry" />
        </mxCell>
        <mxCell id="2B3tAXRZrzROPpyRWBh2-7" value="&lt;div style=&quot;&quot;&gt;&lt;span style=&quot;background-color: initial;&quot;&gt;Communication&lt;/span&gt;&lt;span style=&quot;background-color: initial; white-space: pre;&quot;&gt;&#x9;&lt;/span&gt;&lt;/div&gt;" style="rounded=0;whiteSpace=wrap;html=1;align=right;" vertex="1" parent="1">
          <mxGeometry x="170" y="60" width="120" height="60" as="geometry" />
        </mxCell>
        <mxCell id="2B3tAXRZrzROPpyRWBh2-8" value="Quick Plan" style="rounded=0;whiteSpace=wrap;html=1;" vertex="1" parent="1">
          <mxGeometry x="440" y="39.38" width="120" height="60" as="geometry" />
        </mxCell>
        <mxCell id="2B3tAXRZrzROPpyRWBh2-9" value="Quick Design" style="rounded=0;whiteSpace=wrap;html=1;" vertex="1" parent="1">
          <mxGeometry x="500" y="220" width="120" height="60" as="geometry" />
        </mxCell>
        <mxCell id="2B3tAXRZrzROPpyRWBh2-10" value="Construction of Prototype" style="rounded=0;whiteSpace=wrap;html=1;" vertex="1" parent="1">
          <mxGeometry x="430" y="320.63" width="120" height="60" as="geometry" />
        </mxCell>
        <mxCell id="2B3tAXRZrzROPpyRWBh2-11" value="Deployment" style="rounded=0;whiteSpace=wrap;html=1;" vertex="1" parent="1">
          <mxGeometry x="170" y="310" width="120" height="60" as="geometry" />
        </mxCell>
      </root>
    </mxGraphModel>
  </diagram>
</mxfile>
